<svg xmlns="http://www.w3.org/2000/svg" width="53.565" height="52"><defs><style>.prefix__cls-3{fill:#d0d0d0}</style></defs><g id="prefix__Group_20" data-name="Group 20" transform="translate(0 4)"><path id="prefix__Path_67" d="M-36.591 254.548a2.835 2.835 0 001.56-.447l8.148-5.124 8.564-5.4c2.107-1.333 4.2-2.695 6.315-4.012.961-.6.755-.609 1.288.312.69 1.195 1.4 2.379 2.078 3.58.22.389.428.391.794.178q6.428-3.73 12.875-7.427c.287-.165.382-.3.2-.618q-2.27-3.872-4.511-7.761c-1-1.727-2-3.45-2.989-5.186-.2-.359-.387-.412-.746-.2q-3.746 2.19-7.51 4.349c-1.772 1.021-3.542 2.047-5.328 3.042-.417.232-.437.432-.205.817.773 1.281 1.507 2.586 2.272 3.872.22.37.172.551-.233.76-2.482 1.279-4.947 2.592-7.421 3.887-2.179 1.14-4.366 2.264-6.543 3.407-2.193 1.151-4.377 2.319-6.567 3.475-1.234.652-2.482 1.279-3.708 1.946a3.408 3.408 0 00-1.907 2.868 3.376 3.376 0 001.472 3.009 3.348 3.348 0 002.102.673z" data-name="Path 67" transform="translate(40.171 -220.026)" fill="#edb255"/><path id="prefix__Path_68" d="M-107.483 578.428h14.023c.712 0 .726-.008.731-.719 0-.449 0-.9.007-1.347a.377.377 0 00-.412-.442 5.182 5.182 0 00-1.243.043c-.4.077-.585-.07-.584-.5a12.372 12.372 0 00-.065-1.992 2.4 2.4 0 00-2.286-1.987c-6.637 0-13.275.018-19.912-.017a2.484 2.484 0 00-2.753 2.176 7.377 7.377 0 00-.051 1.438c-.018.909-.016.909-.9.914-.25 0-.5.009-.748 0-.452-.014-.693.159-.641.651a12.411 12.411 0 01.08 1.243c0 .411.185.542.583.539 1.946-.011 3.893 0 5.839 0h8.334z" data-name="Path 68" transform="translate(146.286 -530.432)" fill="gray"/><path id="prefix__Path_69" d="M-86.153 384.379a2.318 2.318 0 003.569 1.953c3.041-1.748 6.069-3.516 9.106-5.271 1.282-.74 2.573-1.463 3.856-2.2a3.419 3.419 0 001.533-1.378 2.252 2.252 0 00-.5-2.694 2.138 2.138 0 00-2.653-.385q-2.7 1.516-5.376 3.06-3.763 2.165-7.515 4.348a11.713 11.713 0 00-1.1.683 2.109 2.109 0 00-.92 1.884z" class="prefix__cls-3" data-name="Path 69" transform="translate(117.797 -356.728)"/><path id="prefix__Path_70" d="M40.38 171.874a2.309 2.309 0 001.144-.3l8.333-4.816c1.655-.956 3.3-1.927 4.967-2.864a2.562 2.562 0 001.537-2.061 2.211 2.211 0 00-1.145-2.172 2.29 2.29 0 00-2.5.034q-2.9 1.7-5.815 3.39-3.689 2.135-7.387 4.257a3.538 3.538 0 00-.825.639 2.146 2.146 0 00-.459 2.442 2.4 2.4 0 002.15 1.451z" class="prefix__cls-3" data-name="Path 70" transform="translate(-18.756 -163.307)"/></g></svg>