<svg xmlns="http://www.w3.org/2000/svg" width="56" height="56"><defs><style>.prefix__cls-2,.prefix__cls-3{fill:none;stroke:#58af32;stroke-linecap:round;stroke-linejoin:round;stroke-width:2px}.prefix__cls-3{stroke:gray}.prefix__cls-4{fill:gray}</style></defs><g id="prefix__Group_46" data-name="Group 46" transform="translate(-233 -265)"><g id="prefix__Rectangle_165" data-name="Rectangle 165" transform="translate(233 265)" fill="#fff" stroke="#c4c4c4"><rect width="56" height="56" rx="28" stroke="none"/><rect width="55" height="55" x=".5" y=".5" rx="27.5" fill="none"/></g><g id="prefix__Group_44" data-name="Group 44"><g id="prefix__Group_41" data-name="Group 41" transform="translate(181 267)"><path id="prefix__Path_78" d="M4756.286 956.564l-2.737-.564a39.09 39.09 0 011.451-6 27.331 27.331 0 012.382-5s1.713 2 1.618 8-2 16-2 16 5.5 3 11 3 11-3 11-3-1.868-10-2-16 1.47-8 1.47-8a24.462 24.462 0 012.53 5 33.4 33.4 0 011.4 6l-2.7.564" class="prefix__cls-2" data-name="Path 78" transform="translate(-4688.549 -932)"/><path id="prefix__Path_79" d="M4757.544 944.8L4763 943s.372 3.554 5 3.6 5.477-3.6 5.477-3.6l4.831 1.8" class="prefix__cls-2" data-name="Path 79" transform="translate(-4688.549 -932)"/></g><g id="prefix__Group_42" data-name="Group 42"><path id="prefix__Path_80" d="M3406.238 297.767h4.874" class="prefix__cls-3" data-name="Path 80" transform="translate(-3165.385 -.353)"/><path id="prefix__Polygon_10" d="M3.09.585a.5.5 0 01.819 0l2.54 3.628A.5.5 0 016.04 5H.96a.5.5 0 01-.41-.787z" class="prefix__cls-4" data-name="Polygon 10" transform="rotate(90 -22.596 271.203)"/></g><g id="prefix__Group_43" data-name="Group 43" transform="translate(272.6 293.799)"><path id="prefix__Path_80-2" d="M3411.112 297.767h-4.874" class="prefix__cls-3" data-name="Path 80" transform="translate(-3403.358 -294.152)"/><path id="prefix__Polygon_10-2" d="M3.09.585a.5.5 0 01.819 0l2.54 3.628A.5.5 0 016.04 5H.96a.5.5 0 01-.41-.787z" class="prefix__cls-4" data-name="Polygon 10" transform="rotate(-90 3.5 3.5)"/></g></g></g></svg>