<svg xmlns="http://www.w3.org/2000/svg" width="56" height="56"><defs><style>.prefix__cls-2{fill:none;stroke:#58af32;stroke-linecap:round;stroke-linejoin:round;stroke-width:2px}</style></defs><g id="prefix__Group_49" data-name="Group 49" transform="translate(-612 -351)"><g id="prefix__Rectangle_94" data-name="Rectangle 94" transform="translate(612 351)" fill="#fff" stroke="#c4c4c4"><rect width="56" height="56" rx="28" stroke="none"/><rect width="55" height="55" x=".5" y=".5" rx="27.5" fill="none"/></g><g id="prefix__Group_45" data-name="Group 45" transform="translate(379 86)"><g id="prefix__Group_41" data-name="Group 41" transform="translate(181 267)"><path id="prefix__Path_78" d="M4756.286 956.564l-2.737-.564a39.09 39.09 0 011.451-6 27.331 27.331 0 012.382-5s1.713 2 1.618 8-2 16-2 16 5.5 3 11 3 11-3 11-3a114.437 114.437 0 01-1.869-12.436" class="prefix__cls-2" data-name="Path 78" transform="translate(-4688.549 -932)"/><path id="prefix__Path_79" d="M4757.544 944.8L4763 943s.372 3.554 5 3.6 5.477-3.6 5.477-3.6l4.831 1.8" class="prefix__cls-2" data-name="Path 79" transform="translate(-4688.549 -932)"/></g></g><path id="prefix__Path_93" d="M648.353 375.233s.012-2.63.161-4.213a17.757 17.757 0 01.939-3.685" data-name="Path 93" stroke="#707070" stroke-dasharray="1 3" stroke-linecap="round" stroke-linejoin="round" stroke-width="2" fill="none"/></g></svg>