<svg xmlns="http://www.w3.org/2000/svg" width="212.816" height="139.18" viewBox="0 0 212.816 139.18">
    <g id="prefix__Group_114" data-name="Group 114" transform="translate(-685.564 -611.84)">
        <path id="prefix__Subtraction_21" d="M-1628.34 209.52a86.843 86.843 0 0 1-15.225-1.26 59.466 59.466 0 0 1-12.915-3.78l-.575-.25 3.518-1.143-.937-2.884-4.078 1.325-.451-1.389 2-.648a10.621 10.621 0 0 0 2.669-1.293 7.471 7.471 0 0 0 1.986-1.938 6.02 6.02 0 0 0 .987-2.543 6.884 6.884 0 0 0-.342-3.136 6.661 6.661 0 0 0-1.562-2.723 5.551 5.551 0 0 0-2.261-1.378 6.541 6.541 0 0 0-1.952-.288c-.253 0-.514.013-.777.039a14.2 14.2 0 0 0-2.976.636l-6.787 2.2 3.68 11.328a49.516 49.516 0 0 1-11.46-9.78l16.38-22.68a54.955 54.955 0 0 0 13.125 9.135 31.951 31.951 0 0 0 14.175 3.465 34.346 34.346 0 0 0 9.362-1.152l5.569 10.473-1.381.734 1.424 2.677 1.381-.734.791 1.487 4.553-2.421-.79-1.487 3.785-2.012-1.424-2.677-3.785 2.013-.685-1.289 1.852-.986a10.637 10.637 0 0 0 2.405-1.737 7.467 7.467 0 0 0 1.619-2.254 6.006 6.006 0 0 0 .531-2.676 6.9 6.9 0 0 0-.881-3.029 6.663 6.663 0 0 0-2.011-2.41 5.565 5.565 0 0 0-2.466-.965 6.237 6.237 0 0 0-.787-.05c-.137 0-.278 0-.417.013a12 12 0 0 0 .677-4.119 17 17 0 0 0-1.26-6.72 11.113 11.113 0 0 0-4.83-5.04 29.407 29.407 0 0 0-9.926-3.125l.631-.242-1.087-2.83-4 1.536-.524-1.363 1.96-.752a10.644 10.644 0 0 0 2.6-1.431 7.456 7.456 0 0 0 1.882-2.039 6.007 6.007 0 0 0 .853-2.591 6.872 6.872 0 0 0-.506-3.114 6.659 6.659 0 0 0-1.7-2.638 5.539 5.539 0 0 0-2.329-1.257 6.44 6.44 0 0 0-1.59-.195 7.663 7.663 0 0 0-1.148.089 14.237 14.237 0 0 0-2.939.791l-6.663 2.557 4.82 12.557c-2.259-.1-4.754-.152-7.417-.152v-25.2h.025a77.46 77.46 0 0 0 13.941-1.049 27.792 27.792 0 0 0 8.925-3.045 11.812 11.812 0 0 0 4.725-4.725 13.977 13.977 0 0 0 1.364-6.3 15.061 15.061 0 0 0-.866-5.329 9.461 9.461 0 0 0-2.6-3.806c-2.3-2.021-5.8-3.045-10.4-3.045a29.976 29.976 0 0 0-4.322.3v-.468h4.288v-3.024h-4.288v-1.46h2.1a10.635 10.635 0 0 0 2.938-.405 7.464 7.464 0 0 0 2.488-1.229 6.009 6.009 0 0 0 1.724-2.113 6.876 6.876 0 0 0 .644-3.089 6.662 6.662 0 0 0-.644-3.073 5.558 5.558 0 0 0-1.724-2.009 6.854 6.854 0 0 0-2.518-1.079 14.212 14.212 0 0 0-3.028-.315h-7.136v14.772h-1.564v3.032h1.564V101h.269a22.931 22.931 0 0 0-2.76 1.211 61.929 61.929 0 0 0-11.55 8.19l-18.06-21.84c1.276-1.059 2.574-2.082 3.856-3.041l-.529 1.729 1.5.458-.492 1.61 4.932 1.507.492-1.61 4.1 1.254.887-2.9-4.1-1.254.427-1.4 2.007.614a10.632 10.632 0 0 0 2.929.472h.143a7.433 7.433 0 0 0 2.6-.449 6.017 6.017 0 0 0 2.266-1.516 6.864 6.864 0 0 0 1.519-2.766 6.666 6.666 0 0 0 .283-3.127 5.558 5.558 0 0 0-1.062-2.425c-.086-.111-.177-.221-.271-.327a54.818 54.818 0 0 1 10.467-3.04 62.034 62.034 0 0 1 11.316-1.013 81.113 81.113 0 0 1 14.381 1.2 55.444 55.444 0 0 1 12.182 3.61 14.744 14.744 0 0 0-1.965.216l-7.027 1.238 2.565 14.548-1.541.272.526 2.986 1.541-.272.293 1.658 5.079-.9-.292-1.658 4.222-.744-.526-2.986-4.222.744-.254-1.437 2.068-.365a10.67 10.67 0 0 0 2.823-.909 7.47 7.47 0 0 0 2.237-1.643 6.01 6.01 0 0 0 1.331-2.381 6.869 6.869 0 0 0 .1-3.154 8.043 8.043 0 0 0-.512-1.774c.748.485 1.477.993 2.169 1.508a31.52 31.52 0 0 1 9.5 11.138 35.872 35.872 0 0 1 3.589 14.875l-.064-.07a5.562 5.562 0 0 0-2.211-1.456 6.666 6.666 0 0 0-2.2-.36c-.169 0-.341.006-.513.017a14.181 14.181 0 0 0-3 .532l-6.86 1.966 4.072 14.2-1.5.431.836 2.914 1.5-.431.464 1.619 4.608-1.322a31.584 31.584 0 0 1-6.8 6.941 48.339 48.339 0 0 1-9.714 5.6v.84a46.207 46.207 0 0 1 9.162 3.973l-5.058-1.547-4.319 14.126-1.5-.457-.886 2.9 1.5.457-.492 1.61 4.932 1.508.492-1.611 4.1 1.254.886-2.9-4.1-1.254.427-1.4 2.007.614a10.641 10.641 0 0 0 2.929.472h.143a7.414 7.414 0 0 0 2.6-.449 6 6 0 0 0 2.266-1.517 6.877 6.877 0 0 0 1.52-2.766 6.666 6.666 0 0 0 .282-3.127l-.024-.124c.561.546 1.1 1.11 1.618 1.677a26.125 26.125 0 0 1 4.861 7.746 31.842 31.842 0 0 1 2.158 9.535 14.234 14.234 0 0 0-2.938.476l-6.893 1.847 3.823 14.269-1.511.4.785 2.93 1.511-.4.42 1.567a39.438 39.438 0 0 1-10.511 11.086A50.481 50.481 0 0 1-1608.6 207a76.637 76.637 0 0 1-19.74 2.52zm164.22-2.52h-2.776l-.147-.548 2.922-.783V207zm-9.733 0h-76.278l3.037-.986-.52-1.6 4.078-1.325-.938-2.884-4.077 1.325-.452-1.389 2-.648a10.642 10.642 0 0 0 2.67-1.293 7.472 7.472 0 0 0 1.985-1.938 6.022 6.022 0 0 0 .987-2.543 6.88 6.88 0 0 0-.342-3.136 6.65 6.65 0 0 0-1.562-2.723 5.544 5.544 0 0 0-2.261-1.378 6.539 6.539 0 0 0-1.951-.288c-.253 0-.514.013-.777.039a14.223 14.223 0 0 0-2.977.636l-1.507.489v-9.338h28.561v-28.755l.176-.068.6 1.571 4.814-1.848-.6-1.572 4-1.536-1.086-2.831-4 1.536-.523-1.363 1.959-.752a10.636 10.636 0 0 0 2.6-1.431 7.469 7.469 0 0 0 1.882-2.039 6.008 6.008 0 0 0 .852-2.591 6.884 6.884 0 0 0-.5-3.114 6.661 6.661 0 0 0-1.7-2.638 5.567 5.567 0 0 0-2.33-1.257 6.438 6.438 0 0 0-1.59-.195 7.674 7.674 0 0 0-1.148.089 14.239 14.239 0 0 0-2.939.791l-.458.176V109.14h-25.2V86.88c3.58-.729 6.958-1.517 10.04-2.343v7.748h-1.564v3.032h1.564V97h5.157v-1.684h4.288v-3.032h-4.288v-1.46h2.1a10.634 10.634 0 0 0 2.938-.405 7.467 7.467 0 0 0 2.488-1.229 6.006 6.006 0 0 0 1.724-2.113 6.879 6.879 0 0 0 .644-3.089 6.665 6.665 0 0 0-.644-3.073 5.913 5.913 0 0 0-.709-1.072 82.859 82.859 0 0 0 11.122-5.983h13.189l1.286 7.3-1.541.272.526 2.985 1.541-.271.292 1.658 5.079-.9-.293-1.658 4.222-.745-.527-2.985-4.222.744-.254-1.438 2.067-.364a10.633 10.633 0 0 0 2.823-.91 7.453 7.453 0 0 0 2.237-1.643l.032-.035v26.518a5.564 5.564 0 0 0-.918-1.34 5.55 5.55 0 0 0-2.211-1.455 6.656 6.656 0 0 0-2.208-.36c-.167 0-.339.006-.51.016a14.233 14.233 0 0 0-3 .532l-6.86 1.967 4.072 14.2-1.5.431.835 2.914 1.5-.431.464 1.619 4.957-1.421-.464-1.619 4.121-1.182-.835-2.915-4.122 1.183-.4-1.4 2.018-.578a10.666 10.666 0 0 0 2.713-1.2 7.467 7.467 0 0 0 2.053-1.868c.105-.142.2-.288.294-.436v36.935a14.5 14.5 0 0 0-2.311-.924l-6.825-2.086-4.319 14.125-1.5-.457-.886 2.9 1.5.457-.492 1.61 4.932 1.508.492-1.611 4.1 1.254.886-2.9-4.1-1.254.427-1.4 2.007.613a10.64 10.64 0 0 0 2.929.472h.143a7.416 7.416 0 0 0 2.6-.45c.144-.053.286-.113.422-.176v20.359h23.94v10.6a6.746 6.746 0 0 0-2.238-.364c-.123 0-.249 0-.375.009a14.2 14.2 0 0 0-3.006.48l-6.893 1.847 3.823 14.269-1.51.4.465 1.736zm-31.912-14.462l.79 1.486 4.553-2.421-.79-1.487 3.785-2.012-1.423-2.677-3.786 2.013-.685-1.289 1.853-.986a10.642 10.642 0 0 0 2.4-1.737 7.456 7.456 0 0 0 1.619-2.254 6.007 6.007 0 0 0 .531-2.676 6.873 6.873 0 0 0-.881-3.029 6.662 6.662 0 0 0-2.012-2.41 5.565 5.565 0 0 0-2.466-.965 6.237 6.237 0 0 0-.787-.05 7.232 7.232 0 0 0-1.943.279 14.223 14.223 0 0 0-2.822 1.144l-6.3 3.35 6.935 13.043-1.381.734 1.424 2.677 1.381-.734zM-1552.2 207h-.545v-.923l.221-.072.323.993zm84.369-3.477l-.378-1.409 2.028-.543a10.855 10.855 0 0 0 2.057-.78v1.739l-3.706.993zm-1.433-5.349l-1.334-4.981 1.679-.45a5.645 5.645 0 0 1 1.445-.215 2.886 2.886 0 0 1 .925.139 2.075 2.075 0 0 1 1.264 1.586 2.741 2.741 0 0 1-.182 2.16 3.143 3.143 0 0 1-2 1.281l-1.794.481zm-81-1.913l-1.593-4.9 1.653-.537a5.333 5.333 0 0 1 1.618-.3 2.742 2.742 0 0 1 .744.1 2.075 2.075 0 0 1 1.345 1.517 2.739 2.739 0 0 1-.068 2.167 3.14 3.14 0 0 1-1.931 1.383l-1.767.574zm-110 0l-1.594-4.9 1.654-.537a5.333 5.333 0 0 1 1.618-.3 2.751 2.751 0 0 1 .744.1 2.075 2.075 0 0 1 1.345 1.517 2.739 2.739 0 0 1-.068 2.167 3.143 3.143 0 0 1-1.931 1.383l-1.767.574zm155.027-13.711l-2.422-4.552 1.535-.816a4.511 4.511 0 0 1 2.052-.619 2.35 2.35 0 0 1 .24.012 2.077 2.077 0 0 1 1.588 1.261 2.739 2.739 0 0 1 .309 2.146 3.144 3.144 0 0 1-1.661 1.7l-1.64.872zm-110 0l-2.421-4.552 1.535-.816a4.509 4.509 0 0 1 2.052-.619 2.323 2.323 0 0 1 .24.012 2.077 2.077 0 0 1 1.588 1.261 2.739 2.739 0 0 1 .309 2.146 3.143 3.143 0 0 1-1.661 1.7l-1.641.872zm35.976-5.377l-1.334-4.981 1.68-.45a5.67 5.67 0 0 1 1.443-.215 3.032 3.032 0 0 1 .776.094 37.533 37.533 0 0 1-.465 4.982c-.1.033-.2.063-.3.09l-1.795.48zm87.366-23.108a4.466 4.466 0 0 1-1.292-.218l-1.778-.543 1.508-4.932 1.663.508a4.16 4.16 0 0 1 2.049 1.192 2.071 2.071 0 0 1 .231 2.013 2.737 2.737 0 0 1-1.3 1.736 2.333 2.333 0 0 1-1.081.245zm-101-2a4.483 4.483 0 0 1-1.292-.217l-1.777-.544 1.507-4.931 1.663.508a4.161 4.161 0 0 1 2.049 1.191 2.073 2.073 0 0 1 .231 2.014 2.741 2.741 0 0 1-1.3 1.736 2.335 2.335 0 0 1-1.08.243zm-42.365-5.716l-1.848-4.814 1.624-.623a5.045 5.045 0 0 1 1.771-.384 2.643 2.643 0 0 1 .578.061 2.074 2.074 0 0 1 1.422 1.445 2.741 2.741 0 0 1 .045 2.167 3.144 3.144 0 0 1-1.856 1.482l-1.734.667zm113-7l-1.848-4.814 1.623-.623a5.055 5.055 0 0 1 1.772-.384 2.638 2.638 0 0 1 .577.061 2.073 2.073 0 0 1 1.422 1.445 2.738 2.738 0 0 1 .046 2.167 3.143 3.143 0 0 1-1.857 1.483l-1.734.666zm-63.258-14.576l-.381-1.329 1.472-.422c-.34.6-.707 1.187-1.089 1.751zm-1.217-4.246l-.4-1.4 2.018-.579a10.634 10.634 0 0 0 2.713-1.2c.16-.1.318-.207.469-.316-.223.8-.482 1.588-.768 2.341l-4.028 1.155zm-1.526-5.323l-1.421-4.956 1.671-.48a5.567 5.567 0 0 1 1.5-.241 2.824 2.824 0 0 1 .863.124 2.073 2.073 0 0 1 1.291 1.563 2.738 2.738 0 0 1-.144 2.163 3.142 3.142 0 0 1-1.978 1.315l-1.786.513zm92-6l-1.421-4.956 1.671-.48a5.562 5.562 0 0 1 1.5-.24 2.86 2.86 0 0 1 .863.123 2.074 2.074 0 0 1 1.291 1.563 2.735 2.735 0 0 1-.143 2.163 3.147 3.147 0 0 1-1.979 1.316l-1.786.512zm-137.062-18.457h-1.859v-5.158h1.739a4.165 4.165 0 0 1 2.309.54 2.075 2.075 0 0 1 .81 1.859 2.737 2.737 0 0 1-.734 2.039 3.142 3.142 0 0 1-2.266.719zm101-4h-1.859v-3.71c1.2-.381 2.383-.778 3.5-1.181a2.637 2.637 0 0 1 .544.274 2.075 2.075 0 0 1 .81 1.858 2.737 2.737 0 0 1-.734 2.039 3.142 3.142 0 0 1-2.262.72zm-72.6-.94l-.9-5.078 1.713-.3a6.323 6.323 0 0 1 1.085-.1 3.2 3.2 0 0 1 1.282.236 2.073 2.073 0 0 1 1.12 1.689 2.736 2.736 0 0 1-.369 2.136 3.142 3.142 0 0 1-2.105 1.1l-1.829.323zm-61.8-1l-.624-.191c.278-.2.577-.415.874-.624l-.249.814zm9.62-3.027a4.486 4.486 0 0 1-1.292-.217l-1.776-.544.4-1.3c1.451-.831 2.931-1.617 4.4-2.337a2.631 2.631 0 0 1 .423.408 2.074 2.074 0 0 1 .231 2.014 2.739 2.739 0 0 1-1.3 1.735 2.332 2.332 0 0 1-1.094.24zm161.183-6.973l-.167-.945h3.624a3.883 3.883 0 0 1-1.627.624l-1.829.322z" data-name="Subtraction 21" transform="translate(2362 541)" style="fill:#58af32;stroke:transparent;stroke-miterlimit:10"/>
    </g>
</svg>
