<svg xmlns="http://www.w3.org/2000/svg" width="142.414" height="78.701" viewBox="0 0 142.414 78.701">
    <path id="prefix__Path_91" d="M-3031.24 104h-16.333l.228-.447a2.88 2.88 0 0 0 .3-2.1 2.841 2.841 0 0 0-1.445-1.678 3.2 3.2 0 0 0-1.585-.486 2.19 2.19 0 0 0-.582.078 2.91 2.91 0 0 0-1.661 1.316c-.295.457-.47.734-.535.846s-.186.35-.365.713a3.208 3.208 0 0 0-.364 1.224 3.332 3.332 0 0 1-.415-.354 2.9 2.9 0 0 1-.887-2.109v-.9l11.31-4.76a.346.346 0 0 0 .18-.15.4.4 0 0 0 .049-.306.393.393 0 0 0-.2-.24l-.554-.32a.725.725 0 0 0-.347-.115h-.013a1.114 1.114 0 0 0-.4.114l-10.028 4.209V96.2a3.188 3.188 0 0 0 1.518.431 2.377 2.377 0 0 0 .511-.055 2.645 2.645 0 0 0 1.665-1.244c.234-.355.4-.619.475-.742s.219-.407.435-.833a2.886 2.886 0 0 0 .3-2.1 2.841 2.841 0 0 0-1.445-1.677 3.2 3.2 0 0 0-1.585-.486 2.185 2.185 0 0 0-.581.078 2.906 2.906 0 0 0-1.661 1.316c-.115.175-.255.405-.418.684h-32.4a2.893 2.893 0 0 1-2.109-.887 2.894 2.894 0 0 1-.888-2.11V72.7a5.461 5.461 0 0 1 1.221-3.442l31.413-41.07a5.078 5.078 0 0 1 4.107-1.887h23.089a2.894 2.894 0 0 1 2.109.888 2.894 2.894 0 0 1 .888 2.109V67.5a2.173 2.173 0 0 0-.346.065 2.9 2.9 0 0 0-1.66 1.316c-.132.2-.3.473-.488.8-.177.307-.319.566-.422.772a2.661 2.661 0 0 0-.254 2.059 2.924 2.924 0 0 0 1.43 1.622 3.256 3.256 0 0 0 1.618.488 2.434 2.434 0 0 0 .511-.055 2.645 2.645 0 0 0 1.665-1.244c.255-.388.41-.631.474-.742.074-.127.216-.4.436-.834a2.876 2.876 0 0 0 .3-2.1 2.251 2.251 0 0 0-.271-.617h6.663a3.021 3.021 0 0 1 2.219.887 2.9 2.9 0 0 1 .888 2.11v16.544a2.9 2.9 0 0 1-.888 2.11 2.893 2.893 0 0 1-2.109.887h-9.768V101a2.894 2.894 0 0 1-.888 2.109 2.894 2.894 0 0 1-2.107.891zm6.164-26.711a2.189 2.189 0 0 0-.58.077 2.909 2.909 0 0 0-1.66 1.317c-.295.456-.47.733-.535.846s-.183.344-.365.713a2.846 2.846 0 0 0-.278 2.1 2.807 2.807 0 0 0 1.4 1.666 3.13 3.13 0 0 0 1.557.463 2.442 2.442 0 0 0 .6-.075 2.827 2.827 0 0 0 1.69-1.287c.248-.376.408-.626.475-.743s.2-.37.425-.816a2.877 2.877 0 0 0 .3-2.1 2.832 2.832 0 0 0-1.444-1.677 3.209 3.209 0 0 0-1.585-.484zm-52.1-9.553a.475.475 0 0 0-.125.018l-.618.166a.71.71 0 0 0-.337.173 1.125 1.125 0 0 0-.2.365l-6.178 15.114a.346.346 0 0 0-.021.233.375.375 0 0 0 .191.249.4.4 0 0 0 .19.047.512.512 0 0 0 .129-.018l.618-.166a.652.652 0 0 0 .334-.183 1.485 1.485 0 0 0 .205-.355l6.159-15.109a.341.341 0 0 0 .021-.233.388.388 0 0 0-.181-.251.362.362 0 0 0-.186-.05zm1 7a3.889 3.889 0 0 0-1 .142 2.806 2.806 0 0 0-1.82 1.244 2.9 2.9 0 0 0-.244 2.105c.116.541.187.851.22.976s.113.376.245.763a2.85 2.85 0 0 0 1.291 1.683 2.464 2.464 0 0 0 1.238.317 3.618 3.618 0 0 0 .933-.132 2.837 2.837 0 0 0 1.8-1.248 2.828 2.828 0 0 0 .284-2.105c-.093-.451-.155-.733-.189-.86s-.132-.437-.277-.878a2.876 2.876 0 0 0-1.273-1.7 2.387 2.387 0 0 0-1.206-.303zm56.73-2.534h-.01a1.128 1.128 0 0 0-.4.115l-15.056 6.318a.346.346 0 0 0-.179.15.377.377 0 0 0-.041.311.428.428 0 0 0 .205.246l.554.319a.689.689 0 0 0 .333.108h.032a1.474 1.474 0 0 0 .4-.106l15.039-6.328a.346.346 0 0 0 .179-.151.391.391 0 0 0 .05-.306.392.392 0 0 0-.2-.24l-.554-.32a.731.731 0 0 0-.35-.112zm-65.733-2.321a3.874 3.874 0 0 0-1 .143 2.8 2.8 0 0 0-1.82 1.243 2.9 2.9 0 0 0-.244 2.105c.051.24.126.548.224.914.09.337.173.622.247.844a2.667 2.667 0 0 0 1.277 1.635 2.513 2.513 0 0 0 1.175.276 3.819 3.819 0 0 0 .984-.14 2.958 2.958 0 0 0 1.811-1.2 2.644 2.644 0 0 0 .3-2.057c-.091-.442-.155-.732-.189-.86s-.123-.411-.282-.9a2.888 2.888 0 0 0-1.273-1.7 2.39 2.39 0 0 0-1.208-.299zm29.351-15.21a.361.361 0 0 0-.2.056.435.435 0 0 0-.184.262l-.166.618a.65.65 0 0 0-.009.381 1.52 1.52 0 0 0 .205.355l.286.369-9.873 13.54h11.655V67.8a2.575 2.575 0 0 0 1.134-.336 2.84 2.84 0 0 0 1.246-1.83 2.806 2.806 0 0 0-.166-2.2 2.91 2.91 0 0 0-1.7-1.264l-.512-.163v-3l7.937 10.225a.347.347 0 0 0 .192.134.482.482 0 0 0 .125.018.361.361 0 0 0 .184-.049.392.392 0 0 0 .181-.252l.166-.618a.717.717 0 0 0 .019-.378 1.142 1.142 0 0 0-.215-.358l-8.588-11.085v-2.372L-3055 55.5l-.52-.671a.345.345 0 0 0-.192-.134.46.46 0 0 0-.114-.02zm8.449 1.575a2.434 2.434 0 0 0-1.324.371 2.932 2.932 0 0 0-1.2 1.8 2.957 2.957 0 0 0 .134 2.168 2.645 2.645 0 0 0 1.632 1.287c.426.141.708.231.841.266s.461.109.918.2a3.7 3.7 0 0 0 .783.089 2.609 2.609 0 0 0 1.324-.342 2.843 2.843 0 0 0 1.247-1.83 2.8 2.8 0 0 0-.167-2.2 2.9 2.9 0 0 0-1.7-1.263c-.225-.074-.521-.16-.9-.263-.34-.091-.627-.162-.855-.209a3.478 3.478 0 0 0-.731-.07zm-8.411-23.75a.361.361 0 0 0-.184.049.4.4 0 0 0-.182.252l-.166.618a.707.707 0 0 0-.018.378 1.137 1.137 0 0 0 .214.357l10 12.908a.348.348 0 0 0 .192.134.458.458 0 0 0 .118.016.355.355 0 0 0 .194-.057.426.426 0 0 0 .185-.261l.166-.618a.643.643 0 0 0 .008-.381 1.478 1.478 0 0 0-.2-.355l-10.005-12.889a.346.346 0 0 0-.192-.134.493.493 0 0 0-.128-.013zm-.261 6.951a2.613 2.613 0 0 0-1.325.342 2.84 2.84 0 0 0-1.246 1.83 2.8 2.8 0 0 0 .166 2.2 2.911 2.911 0 0 0 1.7 1.264c.229.075.524.161.9.263.355.094.635.162.856.208a3.491 3.491 0 0 0 .731.083 2.433 2.433 0 0 0 1.323-.371 2.92 2.92 0 0 0 1.2-1.8 2.958 2.958 0 0 0-.133-2.168 2.646 2.646 0 0 0-1.633-1.286c-.44-.146-.715-.233-.84-.266s-.448-.106-.918-.205a3.727 3.727 0 0 0-.779-.091zm8.706-5.37a2.61 2.61 0 0 0-1.325.343 2.838 2.838 0 0 0-1.246 1.83 2.8 2.8 0 0 0 .167 2.2 2.905 2.905 0 0 0 1.7 1.264c.506.163.828.263.956.3s.406.094.783.168a3.567 3.567 0 0 0 .748.084 2.65 2.65 0 0 0 1.354-.358 2.8 2.8 0 0 0 1.246-1.789 2.835 2.835 0 0 0-.182-2.181 2.825 2.825 0 0 0-1.68-1.3c-.441-.146-.715-.233-.84-.266s-.4-.095-.9-.2a3.708 3.708 0 0 0-.779-.091zm-1.874 69.92h-2.669c-.086 0-.172 0-.255-.01a.04.04 0 0 1 0-.006 1.827 1.827 0 0 1 .186-1.084c.118-.232.257-.486.413-.754s.294-.5.417-.683a1.845 1.845 0 0 1 .854-.719 1.03 1.03 0 0 1 .382-.073 1.512 1.512 0 0 1 .75.23 1.3 1.3 0 0 1 .712.907 1.809 1.809 0 0 1-.187 1.1c-.194.39-.313.623-.365.713-.03.052-.105.171-.237.375zm-74.486 0h-21.423a2.359 2.359 0 0 1-1.721-.722 2.363 2.363 0 0 1-.722-1.721 2.217 2.217 0 0 1 .222-1l23.694-50.9a2.645 2.645 0 0 0 1.132-.956 2.647 2.647 0 0 0 .3-2.057c-.09-.439-.153-.729-.189-.86s-.133-.444-.282-.9a2.888 2.888 0 0 0-1.273-1.7 2.39 2.39 0 0 0-1.211-.307 3.877 3.877 0 0 0-1 .143 2.8 2.8 0 0 0-1.821 1.243 2.907 2.907 0 0 0-.243 2.105c.048.233.123.541.223.913s.178.638.248.844a3.24 3.24 0 0 0 .454.922h-26.583a2.893 2.893 0 0 1-2.109-.888 2.893 2.893 0 0 1-.888-2.109V29.3a2.893 2.893 0 0 1 .888-2.109 2.893 2.893 0 0 1 2.109-.888h45.386c-.066.11-.139.232-.228.387-.177.307-.319.567-.422.772a2.666 2.666 0 0 0-.254 2.059 2.924 2.924 0 0 0 1.43 1.623 3.258 3.258 0 0 0 1.619.488 2.433 2.433 0 0 0 .51-.055 2.648 2.648 0 0 0 1.665-1.245c.235-.356.4-.619.474-.742s.211-.39.436-.834a2.887 2.887 0 0 0 .3-2.1 2.2 2.2 0 0 0-.127-.352h6.6a2.843 2.843 0 0 1 2.164.888 2.994 2.994 0 0 1 .833 2.109v14.648a9.612 9.612 0 0 1-.389 2.886c-.26.816-.615 1.749-1.055 2.775l-24.2 51.837A4.875 4.875 0 0 1-3123.7 104zm-5.373-8.711a2.193 2.193 0 0 0-.58.077 2.908 2.908 0 0 0-1.661 1.317c-.294.455-.469.731-.534.846s-.189.355-.365.713a2.847 2.847 0 0 0-.279 2.1 2.809 2.809 0 0 0 1.4 1.666 3.131 3.131 0 0 0 1.558.463 2.442 2.442 0 0 0 .6-.075 2.831 2.831 0 0 0 1.69-1.287c.26-.4.41-.632.474-.743s.206-.382.426-.816a2.888 2.888 0 0 0 .3-2.1 2.838 2.838 0 0 0-1.444-1.677 3.21 3.21 0 0 0-1.582-.481zm5.632-5.083h-.01a1.136 1.136 0 0 0-.4.115l-15.056 6.318a.344.344 0 0 0-.18.15.376.376 0 0 0-.041.311.43.43 0 0 0 .2.246l.554.32a.69.69 0 0 0 .333.108h.032a1.45 1.45 0 0 0 .4-.106l15.038-6.328a.345.345 0 0 0 .18-.151.4.4 0 0 0 .05-.306.4.4 0 0 0-.2-.24l-.554-.32a.729.729 0 0 0-.344-.114zm-8.565-4.716a2.18 2.18 0 0 0-.58.078 2.91 2.91 0 0 0-1.661 1.316c-.128.2-.287.459-.487.8-.184.319-.323.572-.423.772a2.665 2.665 0 0 0-.253 2.059 2.92 2.92 0 0 0 1.43 1.622 3.256 3.256 0 0 0 1.618.488 2.434 2.434 0 0 0 .51-.055 2.645 2.645 0 0 0 1.665-1.244c.25-.379.41-.629.475-.742.078-.136.233-.433.436-.834a2.882 2.882 0 0 0 .3-2.1 2.842 2.842 0 0 0-1.445-1.678 3.21 3.21 0 0 0-1.583-.479zm14.935-13.2a2.185 2.185 0 0 0-.581.078 2.911 2.911 0 0 0-1.66 1.316c-.295.457-.47.734-.535.846s-.2.367-.365.713a2.847 2.847 0 0 0-.279 2.1 2.8 2.8 0 0 0 1.406 1.666 3.121 3.121 0 0 0 1.557.464 2.439 2.439 0 0 0 .6-.075 2.828 2.828 0 0 0 1.69-1.288c.233-.353.4-.617.475-.742s.2-.38.425-.817a2.879 2.879 0 0 0 .3-2.1 2.839 2.839 0 0 0-1.445-1.678 3.206 3.206 0 0 0-1.586-.481zm5.633-5.083h-.013a1.134 1.134 0 0 0-.4.114l-15.056 6.319a.34.34 0 0 0-.179.15.377.377 0 0 0-.042.311.429.429 0 0 0 .205.245l.554.32a.7.7 0 0 0 .336.108h.03a1.5 1.5 0 0 0 .4-.106l15.039-6.329a.34.34 0 0 0 .179-.15.392.392 0 0 0 .05-.306.387.387 0 0 0-.2-.24l-.553-.32a.721.721 0 0 0-.348-.114zm-8.566-4.716a2.185 2.185 0 0 0-.581.078 2.9 2.9 0 0 0-1.66 1.316c-.132.2-.3.473-.488.8-.176.3-.318.564-.423.772a2.666 2.666 0 0 0-.253 2.059 2.924 2.924 0 0 0 1.43 1.623 3.263 3.263 0 0 0 1.617.487 2.4 2.4 0 0 0 .512-.055 2.645 2.645 0 0 0 1.665-1.244c.249-.379.409-.628.474-.742s.209-.387.436-.833a2.881 2.881 0 0 0 .3-2.1 2.839 2.839 0 0 0-1.445-1.677 3.206 3.206 0 0 0-1.582-.482zm2.831-21.754a.474.474 0 0 0-.125.018l-.617.166a.718.718 0 0 0-.338.173 1.143 1.143 0 0 0-.2.365l-6.179 15.114a.34.34 0 0 0-.02.233.375.375 0 0 0 .191.249.4.4 0 0 0 .189.047.506.506 0 0 0 .129-.018l.618-.166a.651.651 0 0 0 .335-.183 1.505 1.505 0 0 0 .2-.355l6.16-15.109a.346.346 0 0 0 .021-.233.392.392 0 0 0-.182-.251.362.362 0 0 0-.18-.048zm1 7a3.887 3.887 0 0 0-1 .142 2.805 2.805 0 0 0-1.82 1.244 2.909 2.909 0 0 0-.244 2.105c.106.493.184.839.22.976s.115.379.246.763a2.852 2.852 0 0 0 1.29 1.683 2.465 2.465 0 0 0 1.238.317 3.622 3.622 0 0 0 .933-.132 2.839 2.839 0 0 0 1.8-1.248 2.828 2.828 0 0 0 .284-2.105c-.092-.451-.154-.732-.189-.86s-.12-.4-.276-.878a2.878 2.878 0 0 0-1.273-1.7 2.384 2.384 0 0 0-1.205-.301zm-31.614-20.24a.363.363 0 0 0-.183.048.4.4 0 0 0-.182.252l-.166.618a.708.708 0 0 0-.018.378 1.131 1.131 0 0 0 .214.358l10 12.908a.347.347 0 0 0 .192.134.456.456 0 0 0 .116.016.363.363 0 0 0 .2-.057.428.428 0 0 0 .184-.262l.167-.618a.651.651 0 0 0 .008-.381 1.454 1.454 0 0 0-.205-.355l-10-12.889a.352.352 0 0 0-.192-.134.478.478 0 0 0-.131-.01zm44.713 6.789a2.182 2.182 0 0 0-.58.078 2.91 2.91 0 0 0-1.66 1.316c-.288.447-.468.731-.535.846s-.181.34-.365.713a2.847 2.847 0 0 0-.278 2.1 2.8 2.8 0 0 0 1.405 1.666 3.121 3.121 0 0 0 1.557.464 2.439 2.439 0 0 0 .6-.075 2.825 2.825 0 0 0 1.69-1.288c.249-.377.409-.626.475-.742s.2-.381.425-.817a2.878 2.878 0 0 0 .3-2.1 2.842 2.842 0 0 0-1.446-1.678 3.21 3.21 0 0 0-1.584-.477zm-44.974.162a2.618 2.618 0 0 0-1.325.342 2.84 2.84 0 0 0-1.246 1.83 2.808 2.808 0 0 0 .167 2.2 2.9 2.9 0 0 0 1.7 1.263c.226.075.522.161.9.263.34.091.627.162.855.209a3.5 3.5 0 0 0 .732.083 2.434 2.434 0 0 0 1.323-.371 2.925 2.925 0 0 0 1.2-1.8 2.962 2.962 0 0 0-.133-2.168 2.646 2.646 0 0 0-1.633-1.287c-.413-.137-.7-.229-.84-.266s-.451-.107-.918-.2a3.712 3.712 0 0 0-.779-.093zm50.6-5.245h-.01a1.144 1.144 0 0 0-.4.114l-15.056 6.319a.346.346 0 0 0-.179.15.381.381 0 0 0-.042.311.428.428 0 0 0 .205.245l.554.32a.679.679 0 0 0 .336.108h.03a1.5 1.5 0 0 0 .4-.106l15.039-6.329a.34.34 0 0 0 .179-.15.39.39 0 0 0 .049-.306.391.391 0 0 0-.2-.24l-.554-.32a.737.737 0 0 0-.343-.11zm-41.9-.125a2.615 2.615 0 0 0-1.324.342 2.841 2.841 0 0 0-1.247 1.83 2.805 2.805 0 0 0 .167 2.2 2.9 2.9 0 0 0 1.7 1.264c.491.158.821.261.955.3s.383.089.784.168a3.572 3.572 0 0 0 .748.084 2.643 2.643 0 0 0 1.354-.359 2.809 2.809 0 0 0 1.246-1.788 2.84 2.84 0 0 0-.182-2.182 2.828 2.828 0 0 0-1.681-1.3c-.413-.137-.7-.229-.84-.266s-.443-.1-.9-.2a3.708 3.708 0 0 0-.771-.087zm9.666 72.037a1.545 1.545 0 0 1-.761-.234 1.271 1.271 0 0 1-.7-.9 1.823 1.823 0 0 1 .185-1.082c.117-.23.256-.484.413-.755s.293-.5.417-.682a1.852 1.852 0 0 1 .854-.72 1.032 1.032 0 0 1 .382-.073 1.529 1.529 0 0 1 .751.23 1.3 1.3 0 0 1 .712.908 1.812 1.812 0 0 1-.187 1.1c-.178.359-.308.613-.365.713-.045.079-.2.316-.464.724a1.913 1.913 0 0 1-.867.7 1.023 1.023 0 0 1-.36.077zm76.066-5.8a1.539 1.539 0 0 1-.761-.234 1.6 1.6 0 0 1-.51-.438v-1.552c.107-.213.241-.456.4-.725s.3-.514.427-.7a1.848 1.848 0 0 1 .854-.72 1.024 1.024 0 0 1 .381-.072 1.521 1.521 0 0 1 .752.23 1.3 1.3 0 0 1 .712.907 1.811 1.811 0 0 1-.187 1.1c-.2.4-.318.629-.376.73-.04.07-.193.308-.454.707a1.914 1.914 0 0 1-.866.7 1.027 1.027 0 0 1-.363.074zm-79-4a1.539 1.539 0 0 1-.76-.234 1.241 1.241 0 0 1-.695-.9 1.987 1.987 0 0 1 .177-1.086c.1-.2.233-.444.4-.738s.31-.522.427-.7a1.852 1.852 0 0 1 .854-.719 1.032 1.032 0 0 1 .382-.073 1.519 1.519 0 0 1 .751.23 1.3 1.3 0 0 1 .712.907 1.81 1.81 0 0 1-.187 1.1c-.189.381-.316.626-.375.731-.042.071-.2.316-.454.707a1.908 1.908 0 0 1-.866.7 1.024 1.024 0 0 1-.356.082zm106.934-8.2a1.546 1.546 0 0 1-.761-.234 1.275 1.275 0 0 1-.7-.9 1.817 1.817 0 0 1 .187-1.082c.106-.211.245-.465.412-.755.157-.273.3-.5.417-.682a1.845 1.845 0 0 1 .854-.72 1.02 1.02 0 0 1 .381-.073 1.531 1.531 0 0 1 .752.23 1.3 1.3 0 0 1 .711.908 1.8 1.8 0 0 1-.187 1.1c-.189.381-.312.621-.365.713s-.2.324-.465.724a1.913 1.913 0 0 1-.866.7 1.021 1.021 0 0 1-.36.077zm-50.436-2.469a1.091 1.091 0 0 1-.666-.209 1.825 1.825 0 0 1-.634-.9c-.076-.233-.157-.51-.242-.825s-.146-.578-.187-.778a1.851 1.851 0 0 1 .1-1.112 1.275 1.275 0 0 1 .913-.689 1.867 1.867 0 0 1 .475-.068 1.119 1.119 0 0 1 .669.206 1.81 1.81 0 0 1 .648.914c.144.43.22.665.246.762s.082.353.185.842a1.909 1.909 0 0 1-.118 1.108 1.285 1.285 0 0 1-.915.68 1.832 1.832 0 0 1-.464.076zm-41.565-2.531a1.542 1.542 0 0 1-.761-.234 1.273 1.273 0 0 1-.7-.9 1.821 1.821 0 0 1 .186-1.083c.109-.216.248-.469.412-.754s.3-.509.417-.683a1.843 1.843 0 0 1 .854-.719 1.027 1.027 0 0 1 .381-.073 1.519 1.519 0 0 1 .751.23 1.305 1.305 0 0 1 .711.907 1.8 1.8 0 0 1-.187 1.1c-.2.4-.312.622-.365.713s-.22.351-.465.724a1.9 1.9 0 0 1-.867.7 1.016 1.016 0 0 1-.357.079zm32.564-2.325a1.053 1.053 0 0 1-.658-.211 1.988 1.988 0 0 1-.644-.894c-.077-.234-.156-.506-.237-.806-.086-.323-.151-.591-.193-.8a1.85 1.85 0 0 1 .1-1.113 1.274 1.274 0 0 1 .913-.689 1.865 1.865 0 0 1 .474-.068 1.117 1.117 0 0 1 .671.207 1.809 1.809 0 0 1 .649.914c.141.42.22.668.25.781.02.076.077.337.179.822a1.915 1.915 0 0 1-.117 1.108 1.289 1.289 0 0 1-.915.68 1.821 1.821 0 0 1-.462.076zm56.5-2.475a1.541 1.541 0 0 1-.76-.234 1.241 1.241 0 0 1-.694-.9 1.978 1.978 0 0 1 .177-1.086c.106-.212.242-.461.4-.738s.309-.522.427-.7a1.855 1.855 0 0 1 .816-.7v.076h1.049c.041.02.081.042.122.066a1.3 1.3 0 0 1 .711.907 1.8 1.8 0 0 1-.187 1.1c-.184.371-.313.624-.375.731-.04.07-.193.308-.454.707a1.91 1.91 0 0 1-.866.7 1.018 1.018 0 0 1-.353.078zm-92-5a1.54 1.54 0 0 1-.76-.234 1.249 1.249 0 0 1-.695-.9 2 2 0 0 1 .177-1.087c.112-.22.247-.468.4-.737.165-.287.309-.522.427-.7a1.845 1.845 0 0 1 .854-.72 1.017 1.017 0 0 1 .38-.072 1.521 1.521 0 0 1 .752.23 1.3 1.3 0 0 1 .711.907 1.811 1.811 0 0 1-.187 1.1c-.194.391-.317.629-.375.73-.042.072-.2.324-.454.707a1.912 1.912 0 0 1-.866.7 1.024 1.024 0 0 1-.352.083zm66.506-1.971V63.5l.06.02h.008a1.838 1.838 0 0 1 .915.639 1.271 1.271 0 0 1 .141 1.135 1.3 1.3 0 0 1-.692.923 1.675 1.675 0 0 1-.431.127zm8.438-5.35a2.139 2.139 0 0 1-.415-.043c-.427-.086-.689-.143-.8-.174-.076-.02-.331-.1-.8-.256a1.909 1.909 0 0 1-.9-.656 1.285 1.285 0 0 1-.131-1.132 1.242 1.242 0 0 1 .687-.9 1.886 1.886 0 0 1 .726-.141 2.286 2.286 0 0 1 .37.031c.242.051.516.118.816.2.319.086.584.164.787.232a1.841 1.841 0 0 1 .916.639 1.271 1.271 0 0 1 .141 1.135 1.3 1.3 0 0 1-.692.923 1.7 1.7 0 0 1-.693.151zm-70.445-7.349a1.089 1.089 0 0 1-.665-.209 1.82 1.82 0 0 1-.634-.9c-.076-.233-.157-.51-.242-.825s-.147-.575-.188-.778a1.851 1.851 0 0 1 .1-1.112 1.275 1.275 0 0 1 .913-.689 1.867 1.867 0 0 1 .475-.068 1.12 1.12 0 0 1 .669.206 1.813 1.813 0 0 1 .649.914c.132.391.217.655.246.762.024.09.086.373.184.841a1.91 1.91 0 0 1-.117 1.108 1.289 1.289 0 0 1-.915.68 1.827 1.827 0 0 1-.463.078zm-9-4.856a1.05 1.05 0 0 1-.657-.211 1.979 1.979 0 0 1-.644-.894c-.078-.239-.158-.511-.237-.806-.084-.312-.148-.58-.193-.8a1.852 1.852 0 0 1 .094-1.113 1.275 1.275 0 0 1 .913-.689 1.871 1.871 0 0 1 .475-.068 1.116 1.116 0 0 1 .67.207 1.8 1.8 0 0 1 .649.914c.138.412.22.668.251.781.021.077.082.361.178.822a1.908 1.908 0 0 1-.117 1.108 1.289 1.289 0 0 1-.915.68 1.825 1.825 0 0 1-.457.077zm70.78-4.6a2.312 2.312 0 0 1-.37-.031c-.241-.051-.516-.117-.816-.2s-.578-.162-.788-.231a1.849 1.849 0 0 1-.915-.639 1.274 1.274 0 0 1-.141-1.135 1.305 1.305 0 0 1 .692-.923 1.713 1.713 0 0 1 .7-.148 2.14 2.14 0 0 1 .412.042c.395.08.68.141.8.174.075.02.33.1.8.257a1.909 1.909 0 0 1 .9.655 1.292 1.292 0 0 1 .131 1.133 1.246 1.246 0 0 1-.687.9 1.9 1.9 0 0 1-.707.153zm-49.344-4.075a1.542 1.542 0 0 1-.761-.234 1.273 1.273 0 0 1-.7-.9 1.817 1.817 0 0 1 .186-1.082c.1-.207.239-.454.412-.755.157-.273.3-.5.417-.683a1.846 1.846 0 0 1 .854-.719 1.028 1.028 0 0 1 .381-.073 1.519 1.519 0 0 1 .751.23 1.307 1.307 0 0 1 .712.907 1.813 1.813 0 0 1-.188 1.1c-.193.39-.312.623-.365.713s-.208.333-.465.725a1.909 1.909 0 0 1-.866.7 1.018 1.018 0 0 1-.357.078zm-42.656-.924a2.3 2.3 0 0 1-.369-.031c-.237-.05-.512-.116-.816-.2-.321-.086-.586-.164-.788-.232a1.846 1.846 0 0 1-.916-.639 1.275 1.275 0 0 1-.14-1.135 1.3 1.3 0 0 1 .692-.923 1.708 1.708 0 0 1 .7-.147 2.094 2.094 0 0 1 .414.042c.427.086.689.143.8.174.074.02.328.1.8.256a1.91 1.91 0 0 1 .9.656 1.288 1.288 0 0 1 .131 1.132 1.243 1.243 0 0 1-.687.9 1.88 1.88 0 0 1-.711.154zm100.738-.36a2.086 2.086 0 0 1-.4-.041c-.237-.05-.518-.118-.836-.2s-.564-.158-.768-.226a1.848 1.848 0 0 1-.916-.639 1.274 1.274 0 0 1-.141-1.135 1.3 1.3 0 0 1 .692-.923 1.711 1.711 0 0 1 .7-.148 2.138 2.138 0 0 1 .412.042c.4.08.674.14.783.168.091.025.359.11.821.262a1.908 1.908 0 0 1 .9.655 1.289 1.289 0 0 1 .131 1.132 1.271 1.271 0 0 1-.689.913 1.736 1.736 0 0 1-.682.146zm-92-5a2.073 2.073 0 0 1-.4-.041c-.222-.046-.488-.11-.836-.2-.306-.082-.565-.158-.768-.227a1.844 1.844 0 0 1-.916-.639 1.273 1.273 0 0 1-.14-1.135 1.3 1.3 0 0 1 .692-.923 1.709 1.709 0 0 1 .7-.148 2.1 2.1 0 0 1 .414.043c.434.087.682.141.783.168s.4.121.82.261a1.918 1.918 0 0 1 .9.655 1.291 1.291 0 0 1 .131 1.133 1.274 1.274 0 0 1-.69.913 1.731 1.731 0 0 1-.678.147zm30.983-3.515a1.541 1.541 0 0 1-.76-.234 1.241 1.241 0 0 1-.694-.9 1.98 1.98 0 0 1 .177-1.087c.109-.216.244-.464.4-.737s.309-.522.427-.7a2.148 2.148 0 0 1 .3-.363h1.972a1.164 1.164 0 0 1 .425.708 1.813 1.813 0 0 1-.188 1.1c-.194.39-.317.629-.375.73-.041.071-.2.322-.455.707a1.911 1.911 0 0 1-.867.7 1.018 1.018 0 0 1-.35.082z" data-name="Path 91" transform="translate(3157.392 -25.8)" style="fill:#edb255;stroke:transparent;opacity:.913"/>
</svg>
