<svg xmlns="http://www.w3.org/2000/svg" width="208.9" height="139.18" viewBox="0 0 208.9 139.18">
    <path id="prefix__Subtraction_20" d="M-1513.728 209.52a82.234 82.234 0 0 1-15.223-1.343 57.77 57.77 0 0 1-12.973-4.012 73.975 73.975 0 0 1-10.946-6.064 61.82 61.82 0 0 1-9.108-7.481l6.977-9.915a4.93 4.93 0 0 0 1.152.452 5.358 5.358 0 0 0 1.311.165 5.38 5.38 0 0 0 .645-.04 5.23 5.23 0 0 0 1.858-.594 4.925 4.925 0 0 0 1.5-1.248 5.242 5.242 0 0 0 .933-1.837 5.821 5.821 0 0 0 .151-2.336 5.821 5.821 0 0 0-.712-2.229 5.576 5.576 0 0 0-.736-1l2.882-4.1c1.053.944 2.14 1.862 3.232 2.729l-8.047 18.889 4.139-.509 6.9-16.142a61.624 61.624 0 0 0 6.59 4.062 29.723 29.723 0 0 0 14.071 3.57 30.477 30.477 0 0 0 8.374-1.05 17.326 17.326 0 0 0 6.221-3.15 12.947 12.947 0 0 0 3.859-5.355 20.9 20.9 0 0 0 1.286-7.665 20.748 20.748 0 0 0-1.26-7.534 13.374 13.374 0 0 0-3.78-5.381 17.1 17.1 0 0 0-5.775-3.229 23.1 23.1 0 0 0-7.245-1.076 33.059 33.059 0 0 0-4.829.315 27.023 27.023 0 0 0-4.095.945 24.671 24.671 0 0 0-4.306 1.89l-.729.4a4.248 4.248 0 0 0-1.023-1.01 4.329 4.329 0 0 0-1.46-.661 4.024 4.024 0 0 0-.956-.117 4.047 4.047 0 0 0-.642.052 4.168 4.168 0 0 0-1.563.61 4.867 4.867 0 0 0-1.363 1.34 5.7 5.7 0 0 0-.4.66l-2.6-1.684 13.891-6.439-2.808-1.966-14.006 6.508-7.137-4.629 2.488-50.686a4.006 4.006 0 0 0 1.483.289h.022a4.331 4.331 0 0 0 1.553-.287 4.273 4.273 0 0 0 1.355-.838 4.028 4.028 0 0 0 .94-1.285 4.308 4.308 0 0 0 .377-1.641 4.776 4.776 0 0 0-.342-1.882 4.773 4.773 0 0 0-1.005-1.627 4.3 4.3 0 0 0-1.378-.966 4.018 4.018 0 0 0-1.558-.328h-.036a4.252 4.252 0 0 0-1 .118l.458-9.327h48.093a5.148 5.148 0 0 0-.595 1.305 4.854 4.854 0 0 0-.217 1.9 4.17 4.17 0 0 0 .482 1.608 4 4 0 0 0 1.034 1.219 4.322 4.322 0 0 0 1.418.743 4.267 4.267 0 0 0 1.247.188c.112 0 .225 0 .338-.014a4.037 4.037 0 0 0 1.532-.434 4.317 4.317 0 0 0 1.307-1.061 4.77 4.77 0 0 0 .889-1.694 4.759 4.759 0 0 0 .21-1.9 4.3 4.3 0 0 0-.491-1.609c-.046-.083-.1-.167-.149-.249h23.862V104.1h-47.88l-1.615 18.568c-.046-.108-.1-.227-.165-.353a4.756 4.756 0 0 0-1.17-1.513 4.279 4.279 0 0 0-1.472-.817 4.018 4.018 0 0 0-1.191-.182c-.129 0-.261.006-.393.019a4.25 4.25 0 0 0-1.529.447 4.322 4.322 0 0 0-1.268.978 4 4 0 0 0-.807 1.381 4.184 4.184 0 0 0-.2 1.667 4.875 4.875 0 0 0 .544 1.831 4.868 4.868 0 0 0 1.163 1.517 4.194 4.194 0 0 0 1.464.822 3.974 3.974 0 0 0 1.178.178c.132 0 .271-.007.412-.021a4.319 4.319 0 0 0 1.537-.451 4.252 4.252 0 0 0 1.261-.975 4.024 4.024 0 0 0 .8-1.376 4.292 4.292 0 0 0 .2-1.671 4.206 4.206 0 0 0-.142-.833c.559-.193 1.1-.37 1.619-.528l-.615 11.441 3.036-1.547.584-10.675c.514-.108 1.015-.2 1.489-.268.551-.082 1.124-.152 1.7-.21a4.3 4.3 0 0 0-.821.716 4 4 0 0 0-.807 1.38 4.178 4.178 0 0 0-.2 1.667 4.858 4.858 0 0 0 .544 1.832 4.844 4.844 0 0 0 1.163 1.516 4.157 4.157 0 0 0 1.463.823 4.005 4.005 0 0 0 1.179.178 3.971 3.971 0 0 0 .411-.021 4.317 4.317 0 0 0 1.538-.45 4.241 4.241 0 0 0 1.26-.976 4 4 0 0 0 .8-1.376 4.236 4.236 0 0 0 .2-1.67 4.736 4.736 0 0 0-.535-1.835 4.746 4.746 0 0 0-1.17-1.513 4.65 4.65 0 0 0-.692-.481h.152a53 53 0 0 1 16.38 2.52 39.592 39.592 0 0 1 13.65 7.56 35.889 35.889 0 0 1 9.345 12.81 44.752 44.752 0 0 1 3.465 18.27 47.674 47.674 0 0 1-3.546 18.715l-.621-12.371-2.874 1.867.808 15.824a42.612 42.612 0 0 1-8.888 10.72 48.693 48.693 0 0 1-16.065 9.135c-1.231.425-2.494.812-3.752 1.15v-.019a4.74 4.74 0 0 0-.355-1.879 4.259 4.259 0 0 0-.94-1.4 4.012 4.012 0 0 0-1.337-.863 4.249 4.249 0 0 0-1.565-.3 4.324 4.324 0 0 0-1.575.3 4 4 0 0 0-1.345.863 4.169 4.169 0 0 0-.931 1.4 4.852 4.852 0 0 0-.347 1.879 5.036 5.036 0 0 0 .241 1.594c-1.286.154-2.595.266-3.892.337l8.3-14.293h-3.427l-8.331 14.384zm-1.074-13.891a4.332 4.332 0 0 0-1.574.3 4 4 0 0 0-1.345.864 4.163 4.163 0 0 0-.931 1.4 4.854 4.854 0 0 0-.348 1.879 4.854 4.854 0 0 0 .348 1.879 4.171 4.171 0 0 0 .931 1.4 4.008 4.008 0 0 0 1.345.863 4.332 4.332 0 0 0 1.574.3 4.269 4.269 0 0 0 1.566-.3 4.039 4.039 0 0 0 1.337-.863 4.3 4.3 0 0 0 .94-1.4 4.76 4.76 0 0 0 .355-1.879 4.759 4.759 0 0 0-.355-1.879 4.29 4.29 0 0 0-.94-1.4 4.029 4.029 0 0 0-1.337-.864 4.268 4.268 0 0 0-1.564-.3zm-21.614-17.983a5.3 5.3 0 0 0-.644.04 5.315 5.315 0 0 0-1.867.595 4.905 4.905 0 0 0-1.507 1.249 5.127 5.127 0 0 0-.923 1.836 5.951 5.951 0 0 0-.141 2.336 5.949 5.949 0 0 0 .7 2.23 5.111 5.111 0 0 0 1.34 1.559 4.9 4.9 0 0 0 1.764.848 5.278 5.278 0 0 0 1.306.166 5.305 5.305 0 0 0 .651-.04 5.218 5.218 0 0 0 1.859-.593 4.94 4.94 0 0 0 1.5-1.248 5.212 5.212 0 0 0 .933-1.838 5.813 5.813 0 0 0 .151-2.336 5.82 5.82 0 0 0-.712-2.23 5.238 5.238 0 0 0-1.35-1.557 4.924 4.924 0 0 0-1.753-.85 5.257 5.257 0 0 0-1.306-.167zm60.755-2.1a4.058 4.058 0 0 0-.8.081 4.282 4.282 0 0 0-1.475.6 4.318 4.318 0 0 0-1.158 1.106 3.981 3.981 0 0 0-.658 1.457 4.157 4.157 0 0 0-.022 1.678 4.86 4.86 0 0 0 .733 1.765 4.857 4.857 0 0 0 1.315 1.387 4.187 4.187 0 0 0 1.542.664 3.966 3.966 0 0 0 .773.076 4.1 4.1 0 0 0 .825-.085 4.345 4.345 0 0 0 1.482-.609 4.269 4.269 0 0 0 1.152-1.1 4.031 4.031 0 0 0 .652-1.452 4.306 4.306 0 0 0 .027-1.683 4.763 4.763 0 0 0-.724-1.77 4.78 4.78 0 0 0-1.322-1.382 4.3 4.3 0 0 0-1.548-.659 4.079 4.079 0 0 0-.793-.078zm-.755-27.48a4.325 4.325 0 0 0-1.575.3 4.006 4.006 0 0 0-1.345.863 4.167 4.167 0 0 0-.93 1.4 4.848 4.848 0 0 0-.348 1.879 4.845 4.845 0 0 0 .348 1.878 4.166 4.166 0 0 0 .93 1.4 4.006 4.006 0 0 0 1.345.863 4.325 4.325 0 0 0 1.575.3 4.249 4.249 0 0 0 1.565-.3 4.012 4.012 0 0 0 1.337-.863 4.257 4.257 0 0 0 .94-1.4 4.733 4.733 0 0 0 .356-1.878 4.736 4.736 0 0 0-.356-1.879 4.257 4.257 0 0 0-.94-1.4 4.011 4.011 0 0 0-1.337-.863 4.249 4.249 0 0 0-1.564-.304zm-2.982-7.927l-9.371 16.181h3.407l9.391-16.181h-3.427zm-9.405.5a4.332 4.332 0 0 0-1.574.3 4 4 0 0 0-1.345.864 4.166 4.166 0 0 0-.932 1.4 4.855 4.855 0 0 0-.347 1.879 4.855 4.855 0 0 0 .347 1.879 4.179 4.179 0 0 0 .932 1.4 4.009 4.009 0 0 0 1.345.863 4.333 4.333 0 0 0 1.574.3 4.27 4.27 0 0 0 1.566-.3 4.042 4.042 0 0 0 1.337-.863 4.309 4.309 0 0 0 .94-1.4 4.76 4.76 0 0 0 .355-1.879 4.76 4.76 0 0 0-.355-1.879 4.292 4.292 0 0 0-.94-1.4 4.03 4.03 0 0 0-1.337-.864 4.269 4.269 0 0 0-1.563-.309zm-51.938-5.955a3.97 3.97 0 0 0-.643.053 4.154 4.154 0 0 0-1.563.608 4.867 4.867 0 0 0-1.363 1.34 4.872 4.872 0 0 0-.794 1.739 4.2 4.2 0 0 0-.038 1.679 4.009 4.009 0 0 0 .608 1.479 4.312 4.312 0 0 0 1.12 1.146 4.259 4.259 0 0 0 1.453.655 4.058 4.058 0 0 0 .942.112 4.063 4.063 0 0 0 .648-.052 4.309 4.309 0 0 0 1.571-.6 4.76 4.76 0 0 0 1.37-1.336 4.782 4.782 0 0 0 .787-1.743 4.3 4.3 0 0 0 .031-1.682 4.017 4.017 0 0 0-.6-1.475 4.265 4.265 0 0 0-1.112-1.141 4.331 4.331 0 0 0-1.46-.66 4.019 4.019 0 0 0-.956-.132zm3.43-56.382l-3.2 1.229-2.95 18.464 3.182-1.221 2.968-18.472zm3.955 7.275a4.252 4.252 0 0 0-1.531.285 4.313 4.313 0 0 0-1.364.841 4 4 0 0 0-.947 1.288 4.174 4.174 0 0 0-.368 1.637 4.842 4.842 0 0 0 .349 1.879 4.839 4.839 0 0 0 1 1.629 4.164 4.164 0 0 0 1.37.97 3.993 3.993 0 0 0 1.565.324h.022a4.315 4.315 0 0 0 1.554-.287 4.258 4.258 0 0 0 1.354-.838 4.015 4.015 0 0 0 .94-1.285 4.256 4.256 0 0 0 .376-1.641 4.716 4.716 0 0 0-.341-1.881 4.736 4.736 0 0 0-1.005-1.627 4.259 4.259 0 0 0-1.378-.968 4.02 4.02 0 0 0-1.558-.327zm46.453-2.878c-.109 0-.22 0-.33.012a4 4 0 0 0-1.539.432 4.164 4.164 0 0 0-1.3 1.064 4.85 4.85 0 0 0-.882 1.7 4.852 4.852 0 0 0-.217 1.9 4.178 4.178 0 0 0 .482 1.608 4.007 4.007 0 0 0 1.035 1.219 4.307 4.307 0 0 0 1.419.744 4.235 4.235 0 0 0 1.243.187c.113 0 .227 0 .34-.013a4 4 0 0 0 1.532-.435 4.276 4.276 0 0 0 1.307-1.06 4.762 4.762 0 0 0 .889-1.693 4.743 4.743 0 0 0 .209-1.9 4.25 4.25 0 0 0-.49-1.61 4.011 4.011 0 0 0-1.027-1.217 4.237 4.237 0 0 0-1.41-.741 4.32 4.32 0 0 0-1.258-.206zm.73-8.263l-13.692 12.734 3.259 1 13.712-12.729-3.278-1zm-137.463 135.084q.033-.071.064-.143a4.737 4.737 0 0 0 .355-1.878 4.739 4.739 0 0 0-.355-1.879 4.259 4.259 0 0 0-.94-1.4 4.013 4.013 0 0 0-1.337-.863 4.249 4.249 0 0 0-1.565-.3 4.324 4.324 0 0 0-1.575.3 4.006 4.006 0 0 0-1.346.863 4.173 4.173 0 0 0-.931 1.4 4.849 4.849 0 0 0-.347 1.879 5.016 5.016 0 0 0 .251 1.625c-1.172-.125-2.334-.282-3.456-.463l7.849-13.524h-3.427l-7.5 12.946c-1.567-.336-3.121-.735-4.621-1.187a47.923 47.923 0 0 1-15.12-7.455 35.038 35.038 0 0 1-9.975-11.55 31.426 31.426 0 0 1-3.57-14.91 34.6 34.6 0 0 1 1.549-10.658 24.98 24.98 0 0 1 4.647-8.452 52.643 52.643 0 0 1 15.645-12.39v-.84a54.454 54.454 0 0 1-12.81-13.545 28.862 28.862 0 0 1-3.623-8.217 37.565 37.565 0 0 1-1.208-9.738 37.5 37.5 0 0 1 3.255-15.855 32.918 32.918 0 0 1 6.139-9.026l.082.082a4.01 4.01 0 0 0 1.345.863 4.333 4.333 0 0 0 1.574.3 4.27 4.27 0 0 0 1.566-.3 4.043 4.043 0 0 0 1.338-.863 4.309 4.309 0 0 0 .94-1.4 4.762 4.762 0 0 0 .355-1.879 4.762 4.762 0 0 0-.355-1.879c-.05-.116-.1-.23-.161-.34a45.756 45.756 0 0 1 10.488-4.881 58.21 58.21 0 0 1 17.955-2.624 52.156 52.156 0 0 1 16.9 2.624c.525.18 1.05.37 1.559.564a4.73 4.73 0 0 0-.755 1.131 4.483 4.483 0 0 0-.473 1.7 3.851 3.851 0 0 0 .208 1.535 3.682 3.682 0 0 0 .767 1.261 3.977 3.977 0 0 0 1.186.882 3.924 3.924 0 0 0 1.418.388c.1.008.2.012.3.012a3.7 3.7 0 0 0 1.159-.187 3.934 3.934 0 0 0 1.345-.778 4.372 4.372 0 0 0 1.054-1.415 4.619 4.619 0 0 0 .427-1.314c.854.516 1.685 1.064 2.47 1.629l-10.9 7.331 2.825 1.379 10.336-6.939.1.089.1.082a32.563 32.563 0 0 1 8.505 11.655 37.863 37.863 0 0 1 3.046 15.33 29.933 29.933 0 0 1-1.234 8.689 26.669 26.669 0 0 1-3.7 7.586 43.764 43.764 0 0 1-9.423 9.8 4.234 4.234 0 0 0-.9-.262 4.687 4.687 0 0 0-.8-.071 3.971 3.971 0 0 0-.887.1 4 4 0 0 0-1.453.652 4.251 4.251 0 0 0-1.1 1.151 4.318 4.318 0 0 0-.609 1.482 4.017 4.017 0 0 0-.009 1.6 4.165 4.165 0 0 0 .665 1.541 4.836 4.836 0 0 0 1.387 1.315 4.843 4.843 0 0 0 1.764.732 4.573 4.573 0 0 0 .813.076 3.9 3.9 0 0 0 .866-.1 4.008 4.008 0 0 0 1.456-.658 4.315 4.315 0 0 0 1.107-1.159 4.308 4.308 0 0 0 .3-.533 49.84 49.84 0 0 1 11.129 10.375 28.324 28.324 0 0 1 4.225 7.581 36.473 36.473 0 0 1 2.062 9.221c-.114.062-.229.132-.343.209a4.314 4.314 0 0 0-1.14 1.126 4.007 4.007 0 0 0-.633 1.468 4.176 4.176 0 0 0 .01 1.679 4.848 4.848 0 0 0 .762 1.752 4.857 4.857 0 0 0 1.338 1.363l.107.068a31.933 31.933 0 0 1-3.344 11.863 35.587 35.587 0 0 1-9.87 11.865 48.1 48.1 0 0 1-15.435 7.875 66.621 66.621 0 0 1-19.863 2.836zm-16.166-13.891a4.333 4.333 0 0 0-1.574.3 4 4 0 0 0-1.345.864 4.165 4.165 0 0 0-.932 1.4 4.857 4.857 0 0 0-.347 1.879 4.858 4.858 0 0 0 .347 1.879 4.173 4.173 0 0 0 .932 1.4 4.008 4.008 0 0 0 1.345.863 4.333 4.333 0 0 0 1.574.3 4.269 4.269 0 0 0 1.566-.3 4.04 4.04 0 0 0 1.338-.863 4.3 4.3 0 0 0 .94-1.4 4.761 4.761 0 0 0 .355-1.879 4.761 4.761 0 0 0-.355-1.879 4.293 4.293 0 0 0-.94-1.4 4.03 4.03 0 0 0-1.338-.864 4.268 4.268 0 0 0-1.564-.3zm6.422-44.909a33.534 33.534 0 0 0-4.935 8.294 24.979 24.979 0 0 0-2 9.765 17.336 17.336 0 0 0 1.313 6.983 12.507 12.507 0 0 0 3.938 4.987 19.284 19.284 0 0 0 5.67 2.993 20.877 20.877 0 0 0 6.51 1 16.736 16.736 0 0 0 10.29-3.15 9.565 9.565 0 0 0 3.15-4.253 17.783 17.783 0 0 0 1.05-6.457 11.822 11.822 0 0 0-1.68-6.3 16.616 16.616 0 0 0-4.935-4.936 54.132 54.132 0 0 0-7.875-4.3c-3.067-1.395-6.6-2.949-10.5-4.62zm53.752 10.085l-2.841 1.916 1.28 18.655 2.824-1.905-1.263-18.666zm-8.025 6.859a4.057 4.057 0 0 0-.872.1 4.271 4.271 0 0 0-1.464.631 4.321 4.321 0 0 0-1.139 1.126 3.986 3.986 0 0 0-.632 1.468 4.142 4.142 0 0 0 .008 1.678 4.865 4.865 0 0 0 .762 1.752 4.863 4.863 0 0 0 1.339 1.363 4.18 4.18 0 0 0 1.554.637 4.008 4.008 0 0 0 .707.064 4.067 4.067 0 0 0 .891-.1 4.353 4.353 0 0 0 1.471-.634 4.268 4.268 0 0 0 1.132-1.121 4.029 4.029 0 0 0 .626-1.463 4.312 4.312 0 0 0 0-1.683 4.749 4.749 0 0 0-.756-1.757 4.747 4.747 0 0 0-1.345-1.36 4.3 4.3 0 0 0-1.56-.632 4.11 4.11 0 0 0-.723-.068zm-71.8-12.871l-2.465 2.381 4.5 18.149 2.451-2.367-4.486-18.163zm-6.006 8.087a4.033 4.033 0 0 0-1.548.308 4.272 4.272 0 0 0-1.332.875 4.31 4.31 0 0 0-.926 1.307 3.986 3.986 0 0 0-.368 1.556 4.155 4.155 0 0 0 .3 1.651 4.849 4.849 0 0 0 1.056 1.594 4.855 4.855 0 0 0 1.555 1.11 4.162 4.162 0 0 0 1.64.358h.014a4 4 0 0 0 1.554-.314 4.329 4.329 0 0 0 1.338-.88 4.274 4.274 0 0 0 .921-1.3 4.028 4.028 0 0 0 .362-1.55 4.287 4.287 0 0 0-.294-1.657 4.754 4.754 0 0 0-1.049-1.6 4.759 4.759 0 0 0-1.561-1.1 4.277 4.277 0 0 0-1.645-.352zm14.071-3.258a4.015 4.015 0 0 0-1.547.308 4.262 4.262 0 0 0-1.331.875 4.324 4.324 0 0 0-.928 1.307 4.014 4.014 0 0 0-.368 1.555 4.161 4.161 0 0 0 .3 1.652 4.834 4.834 0 0 0 1.055 1.593 4.844 4.844 0 0 0 1.555 1.11 4.185 4.185 0 0 0 1.64.359h.007a4.014 4.014 0 0 0 1.56-.314 4.325 4.325 0 0 0 1.339-.88 4.272 4.272 0 0 0 .92-1.3 4.013 4.013 0 0 0 .363-1.55 4.26 4.26 0 0 0-.294-1.658 4.738 4.738 0 0 0-1.049-1.6 4.722 4.722 0 0 0-1.562-1.105 4.262 4.262 0 0 0-1.646-.352zm44.61-28.372l-1.867 2.875 8.467 16.672 1.856-2.857-8.456-16.689zm-3.131 9.131a4.027 4.027 0 0 0-.889.1 4.028 4.028 0 0 0-1.454.652 4.265 4.265 0 0 0-1.1 1.152 4.34 4.34 0 0 0-.609 1.481 3.987 3.987 0 0 0-.008 1.6 4.158 4.158 0 0 0 .663 1.542 4.847 4.847 0 0 0 1.387 1.315 4.874 4.874 0 0 0 1.765.733 4.531 4.531 0 0 0 .81.076 3.926 3.926 0 0 0 .869-.1 4.007 4.007 0 0 0 1.456-.659 4.319 4.319 0 0 0 1.106-1.158 4.276 4.276 0 0 0 .6-1.475 4.036 4.036 0 0 0 .005-1.591 4.3 4.3 0 0 0-.661-1.549 4.756 4.756 0 0 0-1.382-1.322 4.765 4.765 0 0 0-1.77-.725 4.708 4.708 0 0 0-.788-.071zm-23.838-16.093a4 4 0 0 0-1.317.223 4.178 4.178 0 0 0-1.434.872 4.863 4.863 0 0 0-1.109 1.557 4.839 4.839 0 0 0-.479 1.849 4.173 4.173 0 0 0 .253 1.66 4.007 4.007 0 0 0 .855 1.351 4.32 4.32 0 0 0 1.3.934 4.236 4.236 0 0 0 1.544.392c.086.005.172.008.257.008a4.015 4.015 0 0 0 1.319-.225 4.265 4.265 0 0 0 1.442-.868 4.747 4.747 0 0 0 1.116-1.552 4.728 4.728 0 0 0 .472-1.853 4.25 4.25 0 0 0-.261-1.663 4.011 4.011 0 0 0-.847-1.347 4.246 4.246 0 0 0-1.294-.93 4.319 4.319 0 0 0-1.552-.4c-.086-.005-.176-.008-.264-.008zm10.447-28.168a13 13 0 0 0-8.505 3.045 9.275 9.275 0 0 0-2.756 4.016 17.347 17.347 0 0 0-.919 5.959 13.105 13.105 0 0 0 2.627 8.209l-13.757 9.605 3.088 1.44 12.757-8.89c.136.113.28.23.43.345a61.708 61.708 0 0 0 14.594 7.77 34.857 34.857 0 0 0 4.41-8.4 25.4 25.4 0 0 0 1.47-8.4c0-4.6-1.2-8.237-3.57-10.814a11.391 11.391 0 0 0-4.252-2.914 15.315 15.315 0 0 0-5.617-.971zm-18.533 16.2a3.98 3.98 0 0 0-1.315.223 4.165 4.165 0 0 0-1.434.872 4.855 4.855 0 0 0-1.11 1.556 4.855 4.855 0 0 0-.479 1.85 4.161 4.161 0 0 0 .254 1.66 3.982 3.982 0 0 0 .855 1.351 4.33 4.33 0 0 0 1.3.934 4.283 4.283 0 0 0 1.544.393c.076 0 .155.007.249.007a4.07 4.07 0 0 0 1.328-.224 4.31 4.31 0 0 0 1.442-.869 4.749 4.749 0 0 0 1.116-1.552 4.756 4.756 0 0 0 .473-1.853 4.3 4.3 0 0 0-.262-1.662 4.01 4.01 0 0 0-.847-1.348 4.266 4.266 0 0 0-1.294-.931 4.346 4.346 0 0 0-1.552-.4c-.088-.006-.179-.009-.268-.009zm-.365-28.257a4.324 4.324 0 0 0-1.575.3 4 4 0 0 0-1.346.863 4.173 4.173 0 0 0-.931 1.4 4.849 4.849 0 0 0-.347 1.879 4.847 4.847 0 0 0 .347 1.878 4.173 4.173 0 0 0 .931 1.4 4.005 4.005 0 0 0 1.346.863 4.323 4.323 0 0 0 1.575.3 4.249 4.249 0 0 0 1.565-.3 4.012 4.012 0 0 0 1.337-.863 4.261 4.261 0 0 0 .94-1.4A4.734 4.734 0 0 0-1638 88.5a4.736 4.736 0 0 0-.356-1.879 4.259 4.259 0 0 0-.94-1.4 4.012 4.012 0 0 0-1.337-.863 4.249 4.249 0 0 0-1.567-.296zm48.249.388a3.668 3.668 0 0 0-1.15.185 3.839 3.839 0 0 0-1.337.782 4.471 4.471 0 0 0-1.048 1.417 4.479 4.479 0 0 0-.472 1.7 3.836 3.836 0 0 0 .207 1.535 3.7 3.7 0 0 0 .767 1.26 3.979 3.979 0 0 0 1.186.883 3.926 3.926 0 0 0 1.418.388c.1.008.193.012.3.012a3.721 3.721 0 0 0 1.163-.187 3.937 3.937 0 0 0 1.344-.778 4.4 4.4 0 0 0 1.056-1.416 4.379 4.379 0 0 0 .464-1.7 3.926 3.926 0 0 0-.214-1.538 3.681 3.681 0 0 0-.76-1.256 3.92 3.92 0 0 0-1.178-.879 3.989 3.989 0 0 0-1.427-.392c-.109-.012-.215-.017-.319-.017zm-51.23-8.316l-9.371 16.181h3.407l9.391-16.181h-3.427zm18.327 133.321c-.407-.017-.815-.038-1.214-.061a1.035 1.035 0 0 1-.288-.366 3.517 3.517 0 0 1-.28-1.532 3.525 3.525 0 0 1 .28-1.533.972.972 0 0 1 .94-.567.972.972 0 0 1 .94.567 3.539 3.539 0 0 1 .279 1.533 3.531 3.531 0 0 1-.279 1.532 1 1 0 0 1-.377.426zm123.362-.781a4.225 4.225 0 0 1-.143-1.177 3.525 3.525 0 0 1 .28-1.533.972.972 0 0 1 .94-.567.972.972 0 0 1 .94.567 3.54 3.54 0 0 1 .279 1.533 5.1 5.1 0 0 1-.051.75c-.747.158-1.5.3-2.243.427zm-11.311-6.511a.972.972 0 0 1-.94-.567 3.52 3.52 0 0 1-.279-1.532 3.521 3.521 0 0 1 .279-1.532.972.972 0 0 1 .94-.567.972.972 0 0 1 .94.567 3.519 3.519 0 0 1 .279 1.532 3.519 3.519 0 0 1-.279 1.532.972.972 0 0 1-.939.566zm-125 0a.972.972 0 0 1-.94-.567 3.522 3.522 0 0 1-.279-1.532 3.522 3.522 0 0 1 .279-1.532.972.972 0 0 1 .94-.567.972.972 0 0 1 .94.567 3.521 3.521 0 0 1 .279 1.532 3.521 3.521 0 0 1-.279 1.532.972.972 0 0 1-.939.566zm103.514-16.524a1.162 1.162 0 0 1-1.021-.563 4.3 4.3 0 0 1-.568-1.819 4.3 4.3 0 0 1 .111-1.9 1.19 1.19 0 0 1 1.057-.829 1.6 1.6 0 0 1 .205-.013 1.163 1.163 0 0 1 1.021.562 4.289 4.289 0 0 1 .568 1.82 4.3 4.3 0 0 1-.111 1.9 1.188 1.188 0 0 1-1.057.83 1.684 1.684 0 0 1-.206.011zm61.327-3.741a1 1 0 0 1-.516-.153 3.522 3.522 0 0 1-1.069-1.132 3.539 3.539 0 0 1-.6-1.437.973.973 0 0 1 .48-.987 1.065 1.065 0 0 1 .58-.189 1.013 1.013 0 0 1 .517.153 3.534 3.534 0 0 1 1.068 1.133 3.517 3.517 0 0 1 .6 1.436.972.972 0 0 1-.48.987 1.065 1.065 0 0 1-.581.19zm-77.487-3.441a1.145 1.145 0 0 1-.777-.278l2.075-2.949c.031.161.056.323.075.482a4.3 4.3 0 0 1-.111 1.9 1.19 1.19 0 0 1-1.057.829 1.683 1.683 0 0 1-.206.014zm-34.48-4.448a1.016 1.016 0 0 1-.5-.144 3.52 3.52 0 0 1-1.088-1.114 3.509 3.509 0 0 1-.625-1.426.969.969 0 0 1 .462-1 1.054 1.054 0 0 1 .591-.2 1.011 1.011 0 0 1 .5.144 3.525 3.525 0 0 1 1.088 1.114 3.52 3.52 0 0 1 .625 1.426.974.974 0 0 1-.462 1 1.059 1.059 0 0 1-.592.198zm-77.576-4.931a1.08 1.08 0 0 1-.366-.068 3.518 3.518 0 0 1-1.265-.907 3.536 3.536 0 0 1-.863-1.3.973.973 0 0 1 .282-1.061 1 1 0 0 1 .7-.312 1.089 1.089 0 0 1 .365.068 3.524 3.524 0 0 1 1.264.908 3.526 3.526 0 0 1 .864 1.3.97.97 0 0 1-.283 1.06 1 1 0 0 1-.695.31zm14.073-3.258a1.084 1.084 0 0 1-.367-.068 3.513 3.513 0 0 1-1.265-.907 3.536 3.536 0 0 1-.863-1.3.973.973 0 0 1 .282-1.061 1 1 0 0 1 .7-.312 1.09 1.09 0 0 1 .365.068 3.549 3.549 0 0 1 1.265.909 3.527 3.527 0 0 1 .863 1.3.971.971 0 0 1-.282 1.06 1 1 0 0 1-.699.309zm174.016-11.223a.972.972 0 0 1-.94-.567 3.516 3.516 0 0 1-.28-1.532 3.524 3.524 0 0 1 .28-1.533.972.972 0 0 1 .94-.567.972.972 0 0 1 .94.567 3.54 3.54 0 0 1 .279 1.533 3.531 3.531 0 0 1-.279 1.532.972.972 0 0 1-.941.569zm-59.525-2.2l-.393-.255a5.206 5.206 0 0 1 .349-.566 3.523 3.523 0 0 1 1.108-1.1 1.021 1.021 0 0 1 .491-.135 1.047 1.047 0 0 1 .6.21 1.169 1.169 0 0 1 .3.3c-.769.466-1.6.983-2.464 1.54zm47.138-5.236a.972.972 0 0 1-.94-.567 3.521 3.521 0 0 1-.279-1.532 3.521 3.521 0 0 1 .279-1.532.972.972 0 0 1 .94-.567.972.972 0 0 1 .94.567 3.521 3.521 0 0 1 .279 1.532 3.521 3.521 0 0 1-.279 1.532.972.972 0 0 1-.939.568zm-119.913-.835a1.232 1.232 0 0 1-.145-.009 3.516 3.516 0 0 1-1.437-.6 3.509 3.509 0 0 1-1.132-1.068.97.97 0 0 1 .036-1.1.969.969 0 0 1 .842-.489 1.326 1.326 0 0 1 .145.009 3.53 3.53 0 0 1 1.437.6 3.535 3.535 0 0 1 1.133 1.068.973.973 0 0 1-.036 1.1.97.97 0 0 1-.843.491zm67.245-5.316a1.048 1.048 0 0 1-.6-.21.968.968 0 0 1-.445-1 3.508 3.508 0 0 1 .65-1.415 3.519 3.519 0 0 1 1.107-1.1 1.022 1.022 0 0 1 .491-.135 1.047 1.047 0 0 1 .6.21.972.972 0 0 1 .445 1 3.534 3.534 0 0 1-.651 1.415 3.518 3.518 0 0 1-1.107 1.094 1.018 1.018 0 0 1-.49.143zm-54.266-1.025a1.238 1.238 0 0 1-.145-.009 3.515 3.515 0 0 1-1.437-.6 3.532 3.532 0 0 1-1.133-1.069.972.972 0 0 1 .037-1.1 1.032 1.032 0 0 1 .524-.437v.293c1.09.58 2.162 1.195 3.186 1.828a1.055 1.055 0 0 1-.189.6.968.968 0 0 1-.843.496zm-38.476-9.257a1.133 1.133 0 0 1-.477-.115.973.973 0 0 1-.612-.912 3.518 3.518 0 0 1 .394-1.506 3.534 3.534 0 0 1 .9-1.272.968.968 0 0 1 .614-.232 1.126 1.126 0 0 1 .478.116.97.97 0 0 1 .612.911 3.538 3.538 0 0 1-.4 1.507 3.545 3.545 0 0 1-.9 1.271.971.971 0 0 1-.609.235zm126.509-3.51a.978.978 0 0 1-.591-.211 3.529 3.529 0 0 1-.944-1.238 3.512 3.512 0 0 1-.446-1.492.971.971 0 0 1 .58-.932 1.109 1.109 0 0 1 .5-.132.984.984 0 0 1 .591.211 3.525 3.525 0 0 1 .944 1.238 3.542 3.542 0 0 1 .447 1.492.972.972 0 0 1-.58.932 1.115 1.115 0 0 1-.499.135zm-14.411-1a.98.98 0 0 1-.591-.211 3.512 3.512 0 0 1-.943-1.238 3.512 3.512 0 0 1-.447-1.491.971.971 0 0 1 .58-.932 1.116 1.116 0 0 1 .5-.132.977.977 0 0 1 .59.211 3.5 3.5 0 0 1 .944 1.238 3.512 3.512 0 0 1 .447 1.491.972.972 0 0 1-.58.932 1.115 1.115 0 0 1-.5.136zm-120.184-7.462a1.127 1.127 0 0 1-.476-.115.972.972 0 0 1-.612-.911 3.525 3.525 0 0 1 .394-1.507 3.516 3.516 0 0 1 .9-1.27.97.97 0 0 1 .615-.232 1.125 1.125 0 0 1 .477.115.97.97 0 0 1 .612.911 3.512 3.512 0 0 1-.4 1.507 3.515 3.515 0 0 1-.9 1.27.971.971 0 0 1-.613.236zm109.334-26.724a.959.959 0 0 1-.662-.277 3.529 3.529 0 0 1-.81-1.329 3.537 3.537 0 0 1-.288-1.532.971.971 0 0 1 .674-.866 1.184 1.184 0 0 1 .419-.084.954.954 0 0 1 .661.276 3.527 3.527 0 0 1 .81 1.331 3.545 3.545 0 0 1 .289 1.53.972.972 0 0 1-.674.866 1.17 1.17 0 0 1-.419.089zM-1642.2 90.6a.972.972 0 0 1-.94-.567 3.517 3.517 0 0 1-.28-1.532 3.525 3.525 0 0 1 .28-1.533.972.972 0 0 1 .94-.567.972.972 0 0 1 .94.567 3.539 3.539 0 0 1 .279 1.533 3.531 3.531 0 0 1-.279 1.532.972.972 0 0 1-.94.567zm47.8-.207a1.031 1.031 0 0 1-.452-.114.9.9 0 0 1-.55-.851 3.247 3.247 0 0 1 .388-1.383 3.236 3.236 0 0 1 .851-1.157.9.9 0 0 1 .556-.205 1.036 1.036 0 0 1 .453.115.894.894 0 0 1 .549.851 3.241 3.241 0 0 1-.388 1.382 3.25 3.25 0 0 1-.851 1.158.9.9 0 0 1-.556.2zm47.21-.851a.958.958 0 0 1-.662-.277 3.514 3.514 0 0 1-.809-1.33c-.05-.13-.094-.257-.131-.378l.085-1.736a1.115 1.115 0 0 1 .431-.281 1.177 1.177 0 0 1 .419-.084.958.958 0 0 1 .661.276 3.522 3.522 0 0 1 .809 1.33 3.518 3.518 0 0 1 .288 1.53.97.97 0 0 1-.673.866 1.178 1.178 0 0 1-.418.08zm60-.352a1.222 1.222 0 0 1-.355-.057.972.972 0 0 1-.734-.817 3.522 3.522 0 0 1 .181-1.547 3.527 3.527 0 0 1 .716-1.383.948.948 0 0 1 .709-.325 1.222 1.222 0 0 1 .354.057.973.973 0 0 1 .734.817 3.538 3.538 0 0 1-.182 1.547 3.529 3.529 0 0 1-.715 1.383.949.949 0 0 1-.711.321zm-167.391-6.022a.972.972 0 0 1-.94-.567 2.081 2.081 0 0 1-.093-.222c.371-.327.752-.648 1.132-.955.357-.288.727-.576 1.1-.855.015.163.021.331.021.5a3.521 3.521 0 0 1-.279 1.532.972.972 0 0 1-.944.563zm52.918-3.95a1.04 1.04 0 0 1-.453-.114.9.9 0 0 1-.549-.85 3.252 3.252 0 0 1 .387-1.383 3.252 3.252 0 0 1 .852-1.158c.03-.023.06-.045.091-.064.5.228.989.466 1.461.705a1.161 1.161 0 0 1 .006.119 3.248 3.248 0 0 1-.388 1.383 3.241 3.241 0 0 1-.851 1.157.9.9 0 0 1-.559.201zm104.8-.757a1.222 1.222 0 0 1-.355-.057.972.972 0 0 1-.733-.817 3.519 3.519 0 0 1 .181-1.546 3.526 3.526 0 0 1 .715-1.383.948.948 0 0 1 .709-.325 1.224 1.224 0 0 1 .355.057.971.971 0 0 1 .733.817 3.519 3.519 0 0 1-.181 1.546 3.512 3.512 0 0 1-.715 1.383.951.951 0 0 1-.712.321z" data-name="Subtraction 20" transform="translate(1671.68 -70.84)" style="fill:#58af32;stroke:transparent;stroke-miterlimit:10"/>
</svg>
