<svg xmlns="http://www.w3.org/2000/svg" id="prefix__round-close-24px" width="48" height="48" viewBox="0 0 48 48">
    <path id="prefix__Path_58" d="M0 0h48v48H0z" data-name="Path 58" style="fill:none"/>
    <path id="prefix__Path_59" d="M31.193 6.013a1.992 1.992 0 0 0-2.82 0l-9.78 9.76-9.78-9.78a1.994 1.994 0 0 0-2.82 2.82l9.78 9.78-9.78 9.78a1.994 1.994 0 0 0 2.82 2.82l9.78-9.78 9.78 9.78a1.994 1.994 0 0 0 2.82-2.82l-9.78-9.78 9.78-9.78a2 2 0 0 0 0-2.8z" data-name="Path 59" transform="translate(5.407 5.407)" style="fill:#161616"/>
</svg>
