<svg xmlns="http://www.w3.org/2000/svg" width="56" height="56" viewBox="0 0 56 56">
    <defs>
        <style>
            .prefix__cls-3,.prefix__cls-5{fill:none;stroke-linecap:round;stroke-width:2px}.prefix__cls-3{stroke-linejoin:round;stroke:#58af32}.prefix__cls-5{stroke:gray}
        </style>
    </defs>
    <g id="prefix__Group_48" data-name="Group 48" transform="translate(-970 -263)">
        <g id="prefix__Rectangle_95" data-name="Rectangle 95" transform="translate(970 263)" style="fill:#fff;stroke:#c4c4c4">
            <rect width="56" height="56" rx="28" style="stroke:none"/>
            <rect width="55" height="55" x=".5" y=".5" rx="27.5" style="fill:none"/>
        </g>
        <g id="prefix__Group_47" data-name="Group 47" transform="translate(-3.606 -3.778)">
            <path id="prefix__Path_89" d="M4153.4 281.729l14.7 7.414v6.363" data-name="Path 89" transform="translate(-3157.979 .837)" style="stroke-linejoin:round;stroke-linecap:round;stroke-width:2px;stroke:#707070;fill:none"/>
            <path id="prefix__Path_83" d="M4160.44 291.371l1.716.835v17.308l-15.215-7.329V284.7l9.851 4.886" class="prefix__cls-3" data-name="Path 83" transform="translate(-3160 1.766)"/>
            <path id="prefix__Path_84" d="M4146.941 286.464l15.148-7.408 15.128 7.408-3.131 1.457" class="prefix__cls-3" data-name="Path 84" transform="translate(-3160)"/>
            <path id="prefix__Path_85" d="M4173.547 284.7v17.856l-14.875 7.015" class="prefix__cls-3" data-name="Path 85" transform="translate(-3156.329 1.766)"/>
            <path id="prefix__Path_86" d="M4161.354 289.353l-2.979 1.487" data-name="Path 86" transform="translate(-3156.421 3.223)" style="stroke:#58af32;stroke-linecap:round;stroke-width:2px;fill:none"/>
            <path id="prefix__Path_87" d="M4148.519 293.941l4.976 2.232" class="prefix__cls-5" data-name="Path 87" transform="translate(-3158.193 3.345)"/>
            <path id="prefix__Path_88" d="M4148.519 296.049l2.967 1.257" class="prefix__cls-5" data-name="Path 88" transform="translate(-3158.193 5.318)"/>
        </g>
    </g>
</svg>
